<svg xmlns="http://www.w3.org/2000/svg" version="1.1" xmlns:xlink="http://www.w3.org/1999/xlink" xmlns:svgjs="http://svgjs.dev/svgjs" width="128" height="128" viewBox="0 0 128 128"><g transform="matrix(0.8046875,0,0,0.8046875,12.431538471021398,11.526587701612904)"><svg viewBox="0 0 152 155" data-background-color="#ffffff" preserveAspectRatio="xMidYMid meet" height="130" width="128" xmlns="http://www.w3.org/2000/svg" xmlns:xlink="http://www.w3.org/1999/xlink"><g id="tight-bounds" transform="matrix(1,0,0,1,0.10103060587132973,0.25)"><svg viewBox="0 0 151.79793878825734 154.5" height="154.5" width="151.79793878825734"><g><svg viewBox="0 0 151.79793878825734 154.5" height="154.5" width="151.79793878825734"><g><svg viewBox="0 0 151.79793878825734 154.5" height="154.5" width="151.79793878825734"><g id="textblocktransform"><svg viewBox="0 0 151.79793878825734 154.5" height="154.5" width="151.79793878825734" id="textblock"><g><svg viewBox="0 0 151.79793878825734 154.5" height="154.5" width="151.79793878825734"><g transform="matrix(1,0,0,1,0,0)"><svg width="151.79793878825734" viewBox="1.27 -37.57 38.4 39.080000000000005" height="154.5" data-palette-color="#80674e"><path d="M39.38-1.76L39.38-1.42Q39.38-1.39 39.4-1.32L39.4-1.32 39.33-1.12 39.36-1.12 39.36-1.07Q39.36-1.03 39.33-1L39.33-1Q38.18-0.12 33.73 0.61 29.27 1.34 27.6 1.34 25.93 1.34 25.73 1.32L25.73 1.32 24.49 1.39Q22.53 1.51 22.24 1.51L22.24 1.51Q11.99 1.51 6.63-3.64 1.27-8.79 1.27-18.27 1.27-27.76 7.04-32.67 12.82-37.57 22.68-37.57L22.68-37.57Q24.49-37.57 27.14-37.23 29.79-36.89 31.79-36.23L31.79-36.23Q34.23-35.23 35.97-33.34 37.72-31.45 38.26-29.15L38.26-29.15Q38.35-28.52 38.49-27.16 38.62-25.81 38.72-25.17L38.72-25.17Q38.57-24.8 37.67-24.8L37.67-24.8 25.27-25.02Q25.17-25.07 25.02-25.68L25.02-25.68 25.02-25.61Q24.58-27.59 23.29-28.03L23.29-28.03Q22.71-28.25 21.75-28.25 20.8-28.25 19.96-27.93 19.12-27.61 18.55-27.05 17.99-26.49 17.55-25.74 17.11-25 16.89-24.15 16.67-23.29 16.5-22.39 16.33-21.48 16.3-20.61 16.26-19.73 16.22-18.92 16.19-18.12 16.21-17.59 16.24-17.07 16.24-16.89L16.24-16.89 16.24-15.21Q16.24-13.62 16.38-13 16.53-12.38 16.72-11.63 16.92-10.89 17.19-10.5L17.19-10.5Q18.14-9.16 19.25-8.63 20.36-8.11 22.72-8.11 25.07-8.11 27.2-8.81L27.2-8.81 27.32-12.67 25.56-12.82 25.32-12.7 22.78-12.7 22.49-12.67 21.88-13.31Q21.83-13.72 21.83-14.62L21.83-14.62 21.83-20.09Q21.83-20.51 22.41-20.92L22.41-20.92 24.05-20.92Q26.17-20.92 28.81-20.87L28.81-20.87 29.05-20.87Q31.45-20.83 32.69-20.83L32.69-20.83 34.16-20.83 34.72-20.85Q39.06-20.85 39.67-20.29L39.67-20.29 39.38-1.76Z" opacity="1" transform="matrix(1,0,0,1,0,0)" fill="#80674e" class="wordmark-text-0" data-fill-palette-color="primary" id="text-0"></path></svg></g></svg></g></svg></g></svg></g></svg></g><defs></defs></svg><rect width="151.79793878825734" height="154.5" fill="none" stroke="none" visibility="hidden"></rect></g></svg></g></svg>